<svg id="Capa_1" data-name="Capa 1" xmlns="http://www.w3.org/2000/svg" xmlns:xlink="http://www.w3.org/1999/xlink" viewBox="0 0 184.34 69.11"><defs><style>.cls-1{fill:url(#Degradado_sin_nombre_9);}.cls-2{fill:#624b99;}</style><linearGradient id="Degradado_sin_nombre_9" x1="8.17" y1="33.65" x2="50.2" y2="33.65" gradientUnits="userSpaceOnUse"><stop offset="0" stop-color="#624b99"/><stop offset="0.34" stop-color="#5f6aaf"/><stop offset="1" stop-color="#57ade1"/></linearGradient></defs><path class="cls-1" d="M50.2,33.67a21,21,0,1,1-21-21.23A21.14,21.14,0,0,1,50.2,33.67ZM29.14,36.44h3.1c.34,0,.48-.11.5-.46a42.8,42.8,0,0,0,0-4.67c0-.32-.13-.44-.46-.44h-6.2c-.36,0-.47.14-.47.48,0,1.54,0,3.08,0,4.63,0,.35.14.47.48.46ZM24.6,33.67c0-.76,0-1.53,0-2.29,0-.4-.14-.52-.53-.51q-3.07.06-6.16.09c-.34,0-.48.13-.5.47a44,44,0,0,0,0,4.45c0,.31.12.46.45.47,2.09,0,4.17,0,6.26.09.35,0,.47-.12.47-.47C24.59,35.2,24.6,34.44,24.6,33.67Zm10.88-2.79c-.41,0-.81,0-1.22,0s-.57.11-.54.53a30.59,30.59,0,0,1,0,4.49c0,.45.15.56.57.55,2.05,0,4.11-.07,6.16-.1.32,0,.44-.1.46-.43a33.64,33.64,0,0,0,0-4.49c0-.36-.15-.46-.49-.46C38.77,31,37.13,30.93,35.48,30.88Zm-6.35-1c1,0,2,0,3,0,.43,0,.61-.11.57-.56s-.06-1-.1-1.48c-.08-1.06-.17-2.11-.25-3.18,0-.26-.14-.36-.4-.37-1.83-.08-3.65-.1-5.48,0-.4,0-.49.17-.52.54-.15,1.55-.21,3.11-.32,4.66,0,.36.15.4.43.39Zm.08,7.59H26.06c-.29,0-.44.06-.42.41.11,1.57.18,3.14.32,4.71,0,.33.14.46.49.48,1.82.09,3.65.07,5.48,0,.31,0,.4-.14.44-.43.17-1.55.22-3.11.33-4.66,0-.37-.1-.51-.48-.5C31.22,37.46,30.21,37.45,29.21,37.45ZM19.59,30v-.09c1.53,0,3.05,0,4.58,0,.3,0,.51-.07.51-.41,0-1.56.15-3.11.29-4.67,0-.37-.1-.51-.48-.5-1.21.05-2.43.08-3.64.12-.6,0-1.2.07-1.79.1a.53.53,0,0,0-.54.44,35.08,35.08,0,0,0-.91,4.54c-.05.36.1.48.45.47C18.57,29.94,19.08,30,19.59,30Zm0,7.48v-.09c-.52,0-1.05,0-1.57,0-.37,0-.48.15-.43.49a43.25,43.25,0,0,0,.86,4.37.71.71,0,0,0,.78.61l5,.19c.71,0,.74,0,.67-.74-.13-1.43-.26-2.86-.26-4.3,0-.38-.15-.54-.54-.53C22.64,37.45,21.13,37.44,19.61,37.44ZM38.4,29.87V30c.63,0,1.26,0,1.89,0,.35,0,.49-.08.44-.46a32.27,32.27,0,0,0-.91-4.58.44.44,0,0,0-.48-.37c-.77,0-1.53-.11-2.29-.14-1.09-.05-2.19-.08-3.28-.12-.32,0-.44.12-.4.43s.06.6.08.9c.09,1.27.18,2.54.25,3.81,0,.33.16.43.47.43C35.58,29.86,37,29.87,38.4,29.87Zm0,7.48v.09c-1.41,0-2.82,0-4.23,0-.31,0-.46.09-.48.43-.11,1.57-.15,3.14-.33,4.7,0,.35.12.45.44.44l3-.1c.86,0,1.73-.12,2.6-.16a.39.39,0,0,0,.42-.32,29.19,29.19,0,0,0,.93-4.72c0-.28-.07-.37-.34-.37C39.73,37.36,39.07,37.35,38.41,37.35Zm-22-3.9c0-.72,0-1.42.07-2.13,0-.22,0-.32-.28-.31-2.13.07-4.25.09-6.38.2-.35,0-.51.14-.55.49a19.55,19.55,0,0,0,0,3.9c0,.33.17.48.54.5,2.12.11,4.25.13,6.38.2.25,0,.32-.06.29-.3C16.35,35.15,16.42,34.29,16.39,33.45ZM43.57,31c-.42,0-.79,0-1.14,0s-.55.12-.52.52a30,30,0,0,1,0,4.13c0,.56,0,.59.58.57l6.11-.18c.35,0,.46-.16.49-.48a21.28,21.28,0,0,0,0-3.91c0-.31-.15-.45-.47-.46Zm-27,11.6c1,0,1,0,.86-.71a30,30,0,0,1-.78-4.19c-.05-.37-.2-.47-.55-.47-1,0-2.06,0-3.1-.07s-2-.07-3.05-.11c-.29,0-.47.06-.4.41a21.75,21.75,0,0,0,1.38,4.37.48.48,0,0,0,.43.33ZM10.15,30.21c2-.08,4-.18,6-.17.31,0,.4-.14.44-.43a32.64,32.64,0,0,1,.82-4.37c.16-.59.15-.62-.46-.58-1.83.14-3.64.31-5.47.44a.66.66,0,0,0-.66.47,21.41,21.41,0,0,0-1.26,4C9.45,30.22,9.45,30.22,10.15,30.21Zm37.88,0v0h.4c.35,0,.46-.08.39-.43a20.88,20.88,0,0,0-1.33-4.24.55.55,0,0,0-.49-.37c-1.91-.23-3.82-.34-5.73-.52-.38,0-.51.07-.39.47a27.67,27.67,0,0,1,.85,4.5c0,.31.17.4.46.41C44.14,30.08,46.08,30.14,48,30.19Zm0,7h-2c-1.29,0-2.58.07-3.86.09-.35,0-.48.13-.49.47a8.8,8.8,0,0,1-.14,1,25,25,0,0,1-.72,3.42c-.1.38,0,.5.38.46s.71-.06,1.07-.09L47,42.13a.56.56,0,0,0,.53-.39,20,20,0,0,0,1.23-3.84C48.94,36.92,48.9,37.1,48.05,37.18ZM20.59,49.38c-.11-.2-.17-.32-.24-.43a21.59,21.59,0,0,1-2.22-4.65.82.82,0,0,0-.88-.64c-1.73-.08-3.46-.24-5.19-.42-.13,0-.29-.08-.38,0s.06.25.12.36a20.89,20.89,0,0,0,4,5,1,1,0,0,0,.55.27Zm0-31.46-4.27.44a.64.64,0,0,0-.4.18,20.44,20.44,0,0,0-4.21,5.23c-.17.29,0,.34.22.31,1.83-.19,3.67-.36,5.51-.44a.63.63,0,0,0,.61-.49c.22-.62.47-1.23.72-1.84A22,22,0,0,1,20.62,17.92Zm17.51,31.4,4-.46a.53.53,0,0,0,.31-.15,20.4,20.4,0,0,0,4.1-5.1c.17-.29.14-.44-.24-.4h-.27l-5.28.44a.45.45,0,0,0-.44.36A22.76,22.76,0,0,1,38,49C37.81,49.23,37.85,49.33,38.13,49.32ZM46.2,24.07c.37,0,.43,0,.45-.05s-.07-.29-.14-.41a20.36,20.36,0,0,0-4-5,.61.61,0,0,0-.31-.18L38.12,18c-.22,0-.33.05-.18.28a22.8,22.8,0,0,1,2.41,5.06.39.39,0,0,0,.39.3Zm-7.27-.56c.4,0,.44,0,.31-.36a22.49,22.49,0,0,0-2.37-4.79,1.15,1.15,0,0,0-1-.55c-1,0-2-.09-3-.16-.37,0-.49.05-.4.44a40.88,40.88,0,0,1,.79,4.79c0,.3.17.4.46.41Zm-.06,20.27c-.26,0-.57,0-.88.06L33.63,44c-.26,0-.42.07-.45.37a44.73,44.73,0,0,1-.81,4.88c-.08.35.05.41.36.39,1.06-.07,2.13-.13,3.19-.16a1,1,0,0,0,.92-.52,22.4,22.4,0,0,0,2.41-4.82C39.38,43.81,39.25,43.72,38.87,43.78ZM20,23.46h0l4.72-.17a.37.37,0,0,0,.42-.39A47.32,47.32,0,0,1,26,18c.08-.34-.08-.39-.35-.38-1.11.06-2.22.13-3.33.17a.81.81,0,0,0-.7.38,22.13,22.13,0,0,0-2.5,5c-.1.25-.11.4.24.33A5.07,5.07,0,0,1,20,23.46Zm5.73,26.21c.29,0,.32,0,.19-.57a41.87,41.87,0,0,1-.76-4.57c0-.41-.21-.51-.6-.52q-2.62-.07-5.25-.21c-.33,0-.33.08-.24.32a22,22,0,0,0,2.55,5.05.66.66,0,0,0,.55.33C23.28,49.54,24.37,49.6,25.75,49.67Zm3.41-32h0c-.53,0-1.05,0-1.58,0-.34,0-.51.09-.59.44-.35,1.59-.6,3.19-.82,4.79,0,.32.08.45.4.43.55,0,1.1-.06,1.66-.06,1.18,0,2.37,0,3.55.06.32,0,.43-.07.39-.4-.21-1.64-.47-3.27-.83-4.88a.41.41,0,0,0-.47-.37C30.3,17.64,29.73,17.63,29.16,17.63Zm0,32.05h1.71a.41.41,0,0,0,.47-.37c.36-1.61.62-3.23.83-4.87,0-.32-.06-.42-.38-.42-1.2,0-2.4.06-3.6.07-.56,0-1.11,0-1.67-.06-.26,0-.39.1-.35.38A48.65,48.65,0,0,0,27,49.33a.41.41,0,0,0,.47.36Zm0-33.06h0c.48,0,1,0,1.44,0,.21,0,.32-.06.25-.29a8.76,8.76,0,0,0-1.07-2.42c-.45-.65-.86-.63-1.32,0a9,9,0,0,0-1,2.34c-.09.28,0,.35.29.35C28.25,16.61,28.73,16.62,29.2,16.62Zm0,34.07h0c-.48,0-1,0-1.43,0-.26,0-.36.1-.27.36a8.87,8.87,0,0,0,1,2.26c.5.75.94.76,1.42,0a9.13,9.13,0,0,0,1-2.31c.07-.24,0-.33-.25-.32C30.15,50.7,29.67,50.69,29.19,50.69Zm1.65-37A14,14,0,0,1,32,16.41a.31.31,0,0,0,.3.22l3,.16a.25.25,0,0,0,.2-.05c.07-.09,0-.17-.08-.23a9.15,9.15,0,0,0-1.11-1.05A8.78,8.78,0,0,0,30.84,13.65ZM31,53.59s.08,0,.12,0a9.52,9.52,0,0,0,4.28-2.77c.07-.07.19-.15.11-.26s-.19-.06-.29-.06c-.94.05-1.88.12-2.82.16-.28,0-.39.17-.46.41A10.87,10.87,0,0,1,31,53.33.26.26,0,0,0,31,53.59Zm-8.09-3.06-.07.11c.35.33.68.67,1,1a8.86,8.86,0,0,0,3.27,1.92c.09,0,.2.11.3,0s0-.13,0-.2A13.22,13.22,0,0,1,26.41,51a.33.33,0,0,0-.32-.26Zm-.12-33.74,3.31-.16a.36.36,0,0,0,.36-.28,12.58,12.58,0,0,1,1-2.42c0-.06.09-.15,0-.2a.31.31,0,0,0-.21,0,8.64,8.64,0,0,0-.85.31A10,10,0,0,0,22.74,16.79Zm17.85.45a16.58,16.58,0,0,0-6.3-3.06A11.1,11.1,0,0,1,36,15.85a2.75,2.75,0,0,0,2.39,1.21A19.66,19.66,0,0,1,40.59,17.24ZM34.3,53.13a18.43,18.43,0,0,0,6.37-3c-.11,0-.15-.07-.18-.06l-3.18.3a.69.69,0,0,0-.48.22A20.24,20.24,0,0,1,34.3,53.13ZM17.61,17.21c1.07-.09,2-.19,2.94-.25a1.73,1.73,0,0,0,1.4-.73,8.87,8.87,0,0,1,1.6-1.58,1.69,1.69,0,0,0,.54-.53A20.14,20.14,0,0,0,17.61,17.21ZM24,53.12a18.24,18.24,0,0,1-2.49-2.48.57.57,0,0,0-.38-.22l-3.57-.33A18.7,18.7,0,0,0,24,53.12Z"/><path class="cls-2" d="M66.23,38.22V17.42H59.12V13.83H77.84v3.59H70.69v20.8Z"/><path class="cls-2" d="M86.3,38.64a9.36,9.36,0,0,1-4.63-1.12,8,8,0,0,1-3.17-3.13,9.27,9.27,0,0,1-1.15-4.67,10,10,0,0,1,1.13-4.78,8.19,8.19,0,0,1,3.14-3.25,9.18,9.18,0,0,1,4.72-1.17,8.9,8.9,0,0,1,4.49,1.11,8,8,0,0,1,3,3.05A8.51,8.51,0,0,1,95,29c0,.25,0,.52,0,.8s0,.57,0,.87H81.77a4.53,4.53,0,0,0,1.42,3.17A4.39,4.39,0,0,0,86.27,35a4,4,0,0,0,2.28-.61,3.75,3.75,0,0,0,1.38-1.58h4.53a8.3,8.3,0,0,1-1.62,3,8,8,0,0,1-2.79,2.11A8.82,8.82,0,0,1,86.3,38.64Zm0-14.5a4.71,4.71,0,0,0-2.89.93,4.29,4.29,0,0,0-1.61,2.8h8.61a3.8,3.8,0,0,0-1.25-2.72A4.2,4.2,0,0,0,86.34,24.14Z"/><path class="cls-2" d="M98.75,38.22V20.94h4l.42,3.24a7,7,0,0,1,6.37-3.66v4.7h-1.25a7,7,0,0,0-2.62.46,3.53,3.53,0,0,0-1.79,1.56,6.26,6.26,0,0,0-.65,3.11v7.87Z"/><path class="cls-2" d="M112.54,38.22V20.94h4l.42,3.24a7,7,0,0,1,6.37-3.66v4.7h-1.25a7,7,0,0,0-2.62.46,3.53,3.53,0,0,0-1.79,1.56,6.26,6.26,0,0,0-.65,3.11v7.87Z"/><path class="cls-2" d="M132.3,38.64a8.31,8.31,0,0,1-3.66-.71,4.94,4.94,0,0,1-2.12-1.9,5,5,0,0,1-.7-2.62,4.77,4.77,0,0,1,1.88-3.9,9,9,0,0,1,5.65-1.5h4.39v-.42a3.21,3.21,0,0,0-1-2.61,3.81,3.81,0,0,0-2.51-.84,4.29,4.29,0,0,0-2.37.65,2.77,2.77,0,0,0-1.25,1.9h-4.36a6.12,6.12,0,0,1,1.27-3.28,7.11,7.11,0,0,1,2.84-2.14,9.76,9.76,0,0,1,3.9-.75,8.55,8.55,0,0,1,5.83,1.85,6.56,6.56,0,0,1,2.12,5.22V38.22h-3.8L138,35.43a6.36,6.36,0,0,1-2.14,2.3A6.29,6.29,0,0,1,132.3,38.64Zm1-3.49a3.68,3.68,0,0,0,3-1.25,6.14,6.14,0,0,0,1.35-3.1h-3.8a4,4,0,0,0-2.55.64,2,2,0,0,0-.76,1.59,1.83,1.83,0,0,0,.76,1.57A3.38,3.38,0,0,0,133.31,35.15Z"/><path class="cls-2" d="M60.19,55.29v-11H64a6.52,6.52,0,0,1,3.18.68A4.31,4.31,0,0,1,69,46.89a7.2,7.2,0,0,1,0,5.8,4.26,4.26,0,0,1-1.86,1.92,6.52,6.52,0,0,1-3.18.68Zm2-1.73h1.66A4.46,4.46,0,0,0,66,53.12a2.54,2.54,0,0,0,1.15-1.29,6.09,6.09,0,0,0,0-4.07A2.56,2.56,0,0,0,66,46.46,4.34,4.34,0,0,0,63.86,46H62.2Z"/><path class="cls-2" d="M75.12,55.48A4.24,4.24,0,0,1,73,55a3.68,3.68,0,0,1-1.43-1.42,4.22,4.22,0,0,1-.52-2.1,4.48,4.48,0,0,1,.52-2.16A3.7,3.7,0,0,1,73,47.83a4.15,4.15,0,0,1,2.13-.52,4,4,0,0,1,2,.5,3.52,3.52,0,0,1,1.38,1.38A3.83,3.83,0,0,1,79,51.13c0,.11,0,.23,0,.36s0,.26,0,.39H73.07a2,2,0,0,0,.64,1.43,2,2,0,0,0,1.39.52,1.86,1.86,0,0,0,1-.27,1.66,1.66,0,0,0,.62-.72h2a3.86,3.86,0,0,1-.73,1.35,3.81,3.81,0,0,1-1.26,1A4,4,0,0,1,75.12,55.48Zm0-6.54a2.11,2.11,0,0,0-1.3.42,2,2,0,0,0-.73,1.26H77a1.67,1.67,0,0,0-.57-1.22A1.84,1.84,0,0,0,75.13,48.94Z"/><path class="cls-2" d="M84,55.48a4.65,4.65,0,0,1-1.82-.33,3.27,3.27,0,0,1-1.26-.94,2.72,2.72,0,0,1-.56-1.38h2a1.32,1.32,0,0,0,.52.77,1.65,1.65,0,0,0,1.07.33,1.44,1.44,0,0,0,1-.27.81.81,0,0,0,.31-.61.68.68,0,0,0-.44-.69A7.7,7.7,0,0,0,83.53,52c-.34-.08-.68-.16-1-.27a4.31,4.31,0,0,1-1-.4,1.94,1.94,0,0,1-.7-.63,1.61,1.61,0,0,1-.27-1A2.22,2.22,0,0,1,81.41,48,4.17,4.17,0,0,1,85.94,48a2.64,2.64,0,0,1,1,1.78H85c-.11-.58-.55-.87-1.3-.87a1.51,1.51,0,0,0-.87.22.65.65,0,0,0-.31.55c0,.23.15.42.46.55a5.8,5.8,0,0,0,1.21.38q.81.19,1.5.42a2.59,2.59,0,0,1,1.09.67,1.87,1.87,0,0,1,.41,1.29,2.2,2.2,0,0,1-.38,1.3,2.58,2.58,0,0,1-1.13.91A4.27,4.27,0,0,1,84,55.48Z"/><path class="cls-2" d="M90.07,46.28a1.25,1.25,0,0,1-.9-.33,1.14,1.14,0,0,1,0-1.66,1.29,1.29,0,0,1,.9-.32,1.33,1.33,0,0,1,.91.32A1.16,1.16,0,0,1,91,46,1.29,1.29,0,0,1,90.07,46.28Zm-1,9v-7.8h2v7.8Z"/><path class="cls-2" d="M96.49,53a3.87,3.87,0,0,1-1-.13l-.59.58a2.49,2.49,0,0,0,.73.24,14.39,14.39,0,0,0,1.48.19,4,4,0,0,1,2.26.74,2.06,2.06,0,0,1,.71,1.65,2.49,2.49,0,0,1-.38,1.31,2.7,2.7,0,0,1-1.16,1,4.73,4.73,0,0,1-2,.38,5.1,5.1,0,0,1-2.69-.62,2,2,0,0,1-1-1.86,2.27,2.27,0,0,1,1-1.83,3.36,3.36,0,0,1-.54-.29,4.69,4.69,0,0,1-.4-.33v-.37l1.37-1.44a2.62,2.62,0,0,1-.91-2.06,2.69,2.69,0,0,1,.38-1.43,2.78,2.78,0,0,1,1.09-1,3.67,3.67,0,0,1,1.72-.37,4.06,4.06,0,0,1,1.23.18h3v1.23l-1.33.1a2.86,2.86,0,0,1,.31,1.32,2.81,2.81,0,0,1-.38,1.43,2.63,2.63,0,0,1-1.09,1A3.6,3.6,0,0,1,96.49,53ZM94.6,56.25a1,1,0,0,0,.54.88,2.87,2.87,0,0,0,1.33.29,2.16,2.16,0,0,0,1.23-.31.94.94,0,0,0,.47-.82.93.93,0,0,0-.3-.71,2.1,2.1,0,0,0-1.22-.35c-.43,0-.83-.08-1.2-.14a1.83,1.83,0,0,0-.65.55A1.11,1.11,0,0,0,94.6,56.25Zm1.89-4.82a1.52,1.52,0,0,0,1-.33,1.16,1.16,0,0,0,.4-1,1.14,1.14,0,0,0-.4-.94,1.52,1.52,0,0,0-1-.33,1.56,1.56,0,0,0-1,.33,1.16,1.16,0,0,0-.39.94,1.18,1.18,0,0,0,.39,1A1.56,1.56,0,0,0,96.49,51.43Z"/><path class="cls-2" d="M102.13,55.29v-7.8h1.78l.16,1.33a2.73,2.73,0,0,1,1.05-1.11,3.08,3.08,0,0,1,1.61-.4,2.85,2.85,0,0,1,2.25.91,4,4,0,0,1,.8,2.67v4.4h-2V51.08a2.52,2.52,0,0,0-.4-1.54,1.51,1.51,0,0,0-1.28-.54,1.79,1.79,0,0,0-1.39.6,2.41,2.41,0,0,0-.54,1.67v4Z"/><path class="cls-2" d="M114.78,55.29l4-11h2.27l4,11H123l-.88-2.54h-4.3l-.89,2.54Zm3.55-4.12h3.2l-1.61-4.57Z"/><path class="cls-2" d="M129.77,53a4,4,0,0,1-1.06-.13l-.58.58a2.52,2.52,0,0,0,.72.24c.31.06.8.13,1.48.19a4.07,4.07,0,0,1,2.27.74,2,2,0,0,1,.7,1.65,2.48,2.48,0,0,1-.37,1.31,2.67,2.67,0,0,1-1.17,1,4.65,4.65,0,0,1-2,.38,5.08,5.08,0,0,1-2.69-.62,2,2,0,0,1-1-1.86,2.27,2.27,0,0,1,1-1.83,3.36,3.36,0,0,1-.54-.29,3.52,3.52,0,0,1-.4-.33v-.37l1.37-1.44a2.62,2.62,0,0,1-.92-2.06,2.69,2.69,0,0,1,.39-1.43,2.78,2.78,0,0,1,1.09-1,3.64,3.64,0,0,1,1.72-.37,4,4,0,0,1,1.22.18h3v1.23l-1.34.1a2.74,2.74,0,0,1,.32,1.32,2.81,2.81,0,0,1-.38,1.43,2.69,2.69,0,0,1-1.09,1A3.6,3.6,0,0,1,129.77,53Zm-1.89,3.28a1,1,0,0,0,.54.88,2.84,2.84,0,0,0,1.33.29,2.2,2.2,0,0,0,1.23-.31.94.94,0,0,0,.47-.82.9.9,0,0,0-.31-.71,2,2,0,0,0-1.22-.35c-.43,0-.82-.08-1.19-.14a1.74,1.74,0,0,0-.65.55A1,1,0,0,0,127.88,56.25Zm1.89-4.82a1.55,1.55,0,0,0,1-.33,1.16,1.16,0,0,0,.4-1,1.14,1.14,0,0,0-.4-.94,1.76,1.76,0,0,0-2.05,0,1.17,1.17,0,0,0-.4.94,1.19,1.19,0,0,0,.4,1A1.56,1.56,0,0,0,129.77,51.43Z"/><path class="cls-2" d="M138.89,55.48a4.17,4.17,0,0,1-2.09-.5,3.55,3.55,0,0,1-1.43-1.42,4.12,4.12,0,0,1-.52-2.1,4.48,4.48,0,0,1,.51-2.16,3.7,3.7,0,0,1,1.41-1.47,4.18,4.18,0,0,1,2.13-.52,4,4,0,0,1,2,.5,3.52,3.52,0,0,1,1.38,1.38,3.83,3.83,0,0,1,.49,1.94v.36c0,.12,0,.26,0,.39h-5.93a2,2,0,0,0,.64,1.43,2,2,0,0,0,1.39.52,1.86,1.86,0,0,0,1-.27,1.66,1.66,0,0,0,.62-.72h2a3.86,3.86,0,0,1-.73,1.35,3.62,3.62,0,0,1-1.26,1A4,4,0,0,1,138.89,55.48Zm0-6.54a2.13,2.13,0,0,0-1.3.42,2,2,0,0,0-.73,1.26h3.89a1.67,1.67,0,0,0-.57-1.22A1.84,1.84,0,0,0,138.9,48.94Z"/><path class="cls-2" d="M144.5,55.29v-7.8h1.78l.16,1.33a2.78,2.78,0,0,1,1-1.11,3.13,3.13,0,0,1,1.61-.4,2.82,2.82,0,0,1,2.25.91,3.91,3.91,0,0,1,.81,2.67v4.4h-2V51.08a2.46,2.46,0,0,0-.41-1.54,1.48,1.48,0,0,0-1.27-.54,1.78,1.78,0,0,0-1.39.6,2.42,2.42,0,0,0-.55,1.67v4Z"/><path class="cls-2" d="M157.88,55.48a4.14,4.14,0,0,1-2.1-.52,3.69,3.69,0,0,1-1.44-1.44,4.53,4.53,0,0,1,0-4.25,3.78,3.78,0,0,1,1.44-1.45,4.24,4.24,0,0,1,2.1-.51,4,4,0,0,1,2.52.77,3.52,3.52,0,0,1,1.31,2.15h-2.13a1.54,1.54,0,0,0-.62-.89,1.89,1.89,0,0,0-1.09-.32,1.86,1.86,0,0,0-1.42.63,2.92,2.92,0,0,0,0,3.49,1.86,1.86,0,0,0,1.42.63,2,2,0,0,0,1.09-.31,1.5,1.5,0,0,0,.62-.9h2.13a3.56,3.56,0,0,1-1.31,2.12A3.92,3.92,0,0,1,157.88,55.48Z"/><path class="cls-2" d="M164.47,58.75l1.81-4h-.47l-3-7.29H165L167.15,53l2.28-5.49h2.14l-5,11.26Z"/></svg>