<svg id="Capa_1" data-name="Capa 1" xmlns="http://www.w3.org/2000/svg" viewBox="0 0 184.34 69.11"><defs><style>.cls-1{fill:#474746;}</style></defs><path class="cls-1" d="M53.2,31.78a21,21,0,1,1-21-21.22A21.15,21.15,0,0,1,53.2,31.78ZM32.14,34.55h3.1c.34,0,.48-.11.5-.46a42.79,42.79,0,0,0,0-4.67c0-.32-.13-.45-.46-.45h-6.2c-.36,0-.47.14-.47.48,0,1.55,0,3.09,0,4.63,0,.36.14.47.48.47ZM27.6,31.79c0-.77,0-1.53,0-2.3,0-.4-.14-.51-.53-.51q-3.07.07-6.16.1c-.34,0-.48.13-.5.47a44,44,0,0,0,0,4.45c0,.31.12.46.45.46l6.26.1c.35,0,.48-.12.47-.48C27.59,33.32,27.6,32.55,27.6,31.79ZM38.48,29c-.41,0-.81,0-1.22,0s-.57.1-.54.53a30.59,30.59,0,0,1,0,4.49c0,.45.15.56.57.55,2.05-.05,4.11-.08,6.16-.1.32,0,.44-.1.46-.44a33.64,33.64,0,0,0,0-4.49c0-.35-.15-.45-.49-.45C41.77,29.1,40.13,29,38.48,29Zm-6.35-1c1,0,2,0,3,0,.43,0,.61-.11.57-.56s-.06-1-.1-1.48c-.08-1.06-.17-2.12-.25-3.18,0-.26-.14-.36-.4-.37-1.82-.08-3.65-.11-5.48,0-.4,0-.48.18-.52.55-.15,1.55-.21,3.1-.32,4.66,0,.36.15.39.43.39Zm.08,7.58H29.06c-.29,0-.44.06-.42.41.11,1.56.18,3.14.32,4.7,0,.34.14.46.49.48,1.82.1,3.65.07,5.48,0,.31,0,.41-.14.44-.43.17-1.55.22-3.11.33-4.66,0-.38-.1-.51-.48-.5C34.22,35.58,33.21,35.56,32.21,35.56Zm-9.62-7.49V28h4.58c.3,0,.51-.06.51-.41,0-1.56.15-3.11.29-4.66,0-.37-.1-.52-.48-.5-1.21.05-2.43.07-3.64.12-.6,0-1.2.06-1.79.1a.53.53,0,0,0-.54.44,34.93,34.93,0,0,0-.91,4.53c-.05.36.1.49.45.48C21.57,28.06,22.08,28.07,22.59,28.07Zm0,7.49v-.09c-.52,0-1.05,0-1.57,0-.37,0-.47.16-.43.5a43.06,43.06,0,0,0,.86,4.36.73.73,0,0,0,.78.62c1.68.05,3.36.13,5,.18.71,0,.74,0,.67-.73-.13-1.43-.26-2.87-.26-4.3,0-.38-.15-.54-.54-.54C25.64,35.57,24.13,35.56,22.61,35.56ZM41.4,28v.1c.63,0,1.26,0,1.89,0,.35,0,.49-.07.44-.45a32.27,32.27,0,0,0-.91-4.58.46.46,0,0,0-.48-.38c-.76,0-1.53-.1-2.29-.14l-3.28-.11c-.32,0-.44.12-.4.43s.06.59.08.89c.09,1.27.18,2.54.25,3.81,0,.34.16.44.47.44Zm0,7.48v.1H37.18c-.31,0-.46.09-.48.43-.11,1.57-.14,3.15-.33,4.71,0,.34.12.45.44.44,1,0,2-.06,3-.11s1.73-.11,2.6-.16a.39.39,0,0,0,.42-.32,28.86,28.86,0,0,0,.93-4.71c0-.29-.07-.38-.34-.37Zm-22-3.89c0-.72,0-1.43.07-2.13,0-.22,0-.33-.28-.32-2.12.08-4.25.09-6.38.21-.35,0-.51.14-.55.48a19.65,19.65,0,0,0,0,3.91c0,.33.17.48.54.49,2.13.12,4.25.13,6.38.21.25,0,.32-.07.29-.31C19.35,33.26,19.42,32.41,19.39,31.57Zm27.18-2.41c-.42,0-.79,0-1.14,0s-.55.11-.52.51a30.11,30.11,0,0,1,0,4.14c0,.55,0,.58.58.57,2-.06,4.07-.13,6.11-.18.35,0,.46-.16.49-.49a21.17,21.17,0,0,0,0-3.9c0-.32-.15-.46-.47-.47C49.92,29.29,48.21,29.22,46.57,29.16Zm-27,11.6c1,0,1.05,0,.86-.71a29.86,29.86,0,0,1-.78-4.2c-.05-.37-.2-.46-.55-.46-1,0-2.06,0-3.1-.07s-2-.07-3.05-.11c-.29,0-.47.06-.4.41A21.46,21.46,0,0,0,13.9,40a.48.48,0,0,0,.43.33ZM13.15,28.32c2-.08,4-.18,6-.17.31,0,.4-.13.44-.42a32.64,32.64,0,0,1,.82-4.37c.16-.6.15-.63-.46-.58-1.82.13-3.64.31-5.47.43a.68.68,0,0,0-.66.47,21.41,21.41,0,0,0-1.26,4C12.45,28.34,12.45,28.34,13.15,28.32ZM51,28.3v0a2.67,2.67,0,0,1,.4,0c.35,0,.46-.09.39-.43a20.88,20.88,0,0,0-1.33-4.24A.54.54,0,0,0,50,23.3c-1.91-.23-3.82-.35-5.73-.52-.38,0-.51.06-.39.47a27.47,27.47,0,0,1,.85,4.5c0,.31.17.4.46.4Zm0,7c-.66,0-1.31,0-2,0-1.29,0-2.58.07-3.86.08-.35,0-.48.14-.49.48a8.92,8.92,0,0,1-.14,1,24.88,24.88,0,0,1-.72,3.43c-.1.37,0,.5.38.45s.71,0,1.07-.09L50,40.25a.56.56,0,0,0,.53-.39A20.07,20.07,0,0,0,51.73,36C51.94,35,51.9,35.22,51.05,35.29ZM23.59,47.5c-.11-.2-.17-.32-.24-.43a21.66,21.66,0,0,1-2.22-4.66.83.83,0,0,0-.88-.64c-1.73-.08-3.46-.23-5.19-.41-.13,0-.29-.09-.38,0s.06.25.12.36a20.65,20.65,0,0,0,4,5,.91.91,0,0,0,.55.28Zm0-31.46-4.27.44a.63.63,0,0,0-.4.17,20.48,20.48,0,0,0-4.21,5.24c-.16.29,0,.33.22.31,1.83-.19,3.67-.36,5.51-.45a.62.62,0,0,0,.61-.49c.22-.62.47-1.23.72-1.84A21.49,21.49,0,0,1,23.62,16Zm17.51,31.4,4-.46a.62.62,0,0,0,.31-.16,20.35,20.35,0,0,0,4.1-5.09c.17-.3.14-.45-.24-.4h-.27l-5.28.44a.44.44,0,0,0-.44.36,23.2,23.2,0,0,1-2.37,5C40.81,47.34,40.85,47.45,41.13,47.44ZM49.2,22.19c.37,0,.43,0,.46-.06s-.08-.28-.15-.41a20.55,20.55,0,0,0-4-5,.59.59,0,0,0-.31-.17l-4.06-.45c-.22,0-.33,0-.18.27a22.67,22.67,0,0,1,2.41,5.07.4.4,0,0,0,.39.3Zm-7.27-.56c.4,0,.44,0,.31-.36a22.49,22.49,0,0,0-2.37-4.79,1.16,1.16,0,0,0-1-.56c-1,0-2-.08-3-.15-.37,0-.49,0-.4.43A40.88,40.88,0,0,1,36.17,21c0,.31.17.41.46.42Zm-.06,20.26L41,42l-4.36.17c-.26,0-.42.08-.45.38a44.16,44.16,0,0,1-.81,4.87c-.08.35.05.42.36.4,1.06-.07,2.13-.14,3.19-.17a1,1,0,0,0,.92-.51,22.63,22.63,0,0,0,2.41-4.82C42.38,41.93,42.25,41.84,41.87,41.89ZM23,21.58h0l4.72-.17c.28,0,.39-.12.42-.4A47.13,47.13,0,0,1,29,16.14c.08-.35-.08-.4-.35-.38-1.11.06-2.22.13-3.33.16a.8.8,0,0,0-.7.39,22.27,22.27,0,0,0-2.5,5c-.1.26-.11.41.25.34A4.83,4.83,0,0,1,23,21.58Zm5.73,26.21c.29,0,.32,0,.19-.58a41.48,41.48,0,0,1-.76-4.57c0-.41-.21-.5-.6-.51q-2.62-.08-5.25-.21c-.33,0-.33.07-.24.31a21.58,21.58,0,0,0,2.55,5.05.66.66,0,0,0,.55.33Zm3.41-32h0c-.53,0-1,0-1.58,0a.48.48,0,0,0-.59.44c-.35,1.58-.6,3.18-.82,4.79,0,.32.08.44.4.43.55,0,1.1-.07,1.66-.06,1.18,0,2.37,0,3.55.06.32,0,.43-.08.39-.41-.21-1.64-.47-3.26-.83-4.87a.42.42,0,0,0-.47-.38Zm0,32.05h1.71a.41.41,0,0,0,.47-.37c.36-1.61.62-3.24.83-4.88,0-.32-.06-.42-.38-.41-1.2,0-2.4.06-3.6.07-.56,0-1.11,0-1.66-.06-.27,0-.4.1-.36.37A48.17,48.17,0,0,0,30,47.44a.39.39,0,0,0,.47.36Zm.05-33.07h1.43c.21,0,.32-.07.25-.3A8.83,8.83,0,0,0,32.82,12c-.45-.65-.86-.64-1.32,0a8.89,8.89,0,0,0-1,2.34c-.09.28,0,.34.29.34Zm0,34.08H30.76c-.26,0-.36.09-.27.36a8.87,8.87,0,0,0,1,2.26c.5.75.94.75,1.42,0a9.22,9.22,0,0,0,1-2.3c.07-.24,0-.33-.25-.33Zm1.65-37A14,14,0,0,1,35,14.52a.3.3,0,0,0,.31.22l3,.17c.07,0,.17,0,.2-.06s0-.16-.08-.23a9.91,9.91,0,0,0-1.11-1A8.65,8.65,0,0,0,33.84,11.77ZM34,51.7a.25.25,0,0,0,.12,0A9.61,9.61,0,0,0,38.35,49c.07-.07.19-.15.11-.27s-.19-.06-.29,0l-2.82.16a.46.46,0,0,0-.46.4A10.44,10.44,0,0,1,34,51.44C34,51.52,33.9,51.59,34,51.7Zm-8.09-3.05-.07.11c.35.33.68.67,1,1a9,9,0,0,0,3.27,1.92c.1,0,.2.1.3,0s0-.14,0-.2a13.22,13.22,0,0,1-.95-2.42.34.34,0,0,0-.32-.27ZM25.74,14.9l3.31-.16a.35.35,0,0,0,.36-.28,12.58,12.58,0,0,1,1-2.42c0-.06.09-.14,0-.19a.3.3,0,0,0-.21,0c-.29.1-.57.19-.85.31A10.22,10.22,0,0,0,25.74,14.9Zm17.85.46a16.44,16.44,0,0,0-6.3-3.06A11.1,11.1,0,0,1,39,14a2.71,2.71,0,0,0,2.39,1.2A19.68,19.68,0,0,1,43.59,15.36ZM37.3,51.25a18.62,18.62,0,0,0,6.37-3,1.32,1.32,0,0,0-.18-.07l-3.18.31a.66.66,0,0,0-.48.22A20.24,20.24,0,0,1,37.3,51.25ZM20.61,15.32c1.07-.09,2-.19,2.94-.24a1.74,1.74,0,0,0,1.4-.74,9.57,9.57,0,0,1,1.6-1.58,1.64,1.64,0,0,0,.54-.52A20.12,20.12,0,0,0,20.61,15.32ZM27,51.23a18.24,18.24,0,0,1-2.49-2.48.52.52,0,0,0-.38-.21l-3.57-.33A18.86,18.86,0,0,0,27,51.23Z"/><path class="cls-1" d="M69.23,36.34V15.53H62.12V11.94H80.84v3.59H73.69V36.34Z"/><path class="cls-1" d="M89.3,36.76a9.47,9.47,0,0,1-4.63-1.12A8,8,0,0,1,81.5,32.5a9.21,9.21,0,0,1-1.15-4.67,9.92,9.92,0,0,1,1.13-4.77,8.28,8.28,0,0,1,3.14-3.26,9.18,9.18,0,0,1,4.72-1.17,8.9,8.9,0,0,1,4.49,1.12,7.91,7.91,0,0,1,3,3.05A8.47,8.47,0,0,1,98,27.1c0,.26,0,.53,0,.8s0,.57,0,.88H84.77A4.55,4.55,0,0,0,86.19,32a4.44,4.44,0,0,0,3.08,1.15,4.08,4.08,0,0,0,2.28-.61,3.78,3.78,0,0,0,1.38-1.59h4.53a8.34,8.34,0,0,1-1.62,3A8,8,0,0,1,93.05,36,8.82,8.82,0,0,1,89.3,36.76Zm0-14.5a4.77,4.77,0,0,0-2.89.92A4.31,4.31,0,0,0,84.84,26h8.61a3.78,3.78,0,0,0-1.25-2.72A4.2,4.2,0,0,0,89.34,22.26Z"/><path class="cls-1" d="M101.75,36.34V19.05h4l.42,3.24a7.05,7.05,0,0,1,6.37-3.66v4.71h-1.25a7.16,7.16,0,0,0-2.62.45,3.55,3.55,0,0,0-1.79,1.57,6.23,6.23,0,0,0-.64,3.1v7.88Z"/><path class="cls-1" d="M115.54,36.34V19.05h4l.42,3.24a7.05,7.05,0,0,1,6.37-3.66v4.71h-1.25a7.16,7.16,0,0,0-2.62.45,3.55,3.55,0,0,0-1.79,1.57,6.22,6.22,0,0,0-.65,3.1v7.88Z"/><path class="cls-1" d="M135.3,36.76a8.17,8.17,0,0,1-3.66-.72,4.88,4.88,0,0,1-2.12-1.9,5,5,0,0,1-.7-2.61,4.77,4.77,0,0,1,1.88-3.9,9,9,0,0,1,5.65-1.5h4.39v-.42a3.19,3.19,0,0,0-1-2.61,3.81,3.81,0,0,0-2.51-.84,4.29,4.29,0,0,0-2.37.64,2.79,2.79,0,0,0-1.25,1.9h-4.36a6.12,6.12,0,0,1,1.27-3.27,7.13,7.13,0,0,1,2.84-2.15,9.76,9.76,0,0,1,3.9-.75,8.6,8.6,0,0,1,5.83,1.85,6.58,6.58,0,0,1,2.12,5.23V36.34h-3.8L141,33.55a6,6,0,0,1-5.68,3.21Zm1-3.49a3.71,3.71,0,0,0,3-1.25,6.14,6.14,0,0,0,1.35-3.1h-3.8a4,4,0,0,0-2.55.64,2,2,0,0,0-.76,1.59,1.81,1.81,0,0,0,.76,1.56A3.31,3.31,0,0,0,136.31,33.27Z"/><path class="cls-1" d="M63.19,53.41v-11H67a6.51,6.51,0,0,1,3.18.69A4.24,4.24,0,0,1,72,45a6.63,6.63,0,0,1,.61,2.91,6.56,6.56,0,0,1-.61,2.9,4.31,4.31,0,0,1-1.86,1.92,6.63,6.63,0,0,1-3.18.68Zm2-1.73h1.65A4.45,4.45,0,0,0,69,51.23a2.54,2.54,0,0,0,1.15-1.29,6.06,6.06,0,0,0,0-4.06A2.58,2.58,0,0,0,69,44.57a4.45,4.45,0,0,0-2.18-.45H65.21Z"/><path class="cls-1" d="M78.12,53.6a4.35,4.35,0,0,1-2.1-.5,3.75,3.75,0,0,1-1.43-1.42,4.26,4.26,0,0,1-.52-2.11,4.47,4.47,0,0,1,.52-2.15A3.7,3.7,0,0,1,76,46a4.15,4.15,0,0,1,2.13-.53,4.07,4.07,0,0,1,2,.5,3.66,3.66,0,0,1,1.38,1.38A3.86,3.86,0,0,1,82,49.24c0,.12,0,.24,0,.37s0,.25,0,.39H76.07a2,2,0,0,0,.64,1.43A2,2,0,0,0,78.1,52a1.78,1.78,0,0,0,1-.28,1.63,1.63,0,0,0,.62-.71h2a3.74,3.74,0,0,1-.73,1.34,3.68,3.68,0,0,1-1.26,1A4,4,0,0,1,78.12,53.6Zm0-6.54a2.16,2.16,0,0,0-1.3.41,2,2,0,0,0-.73,1.27H80a1.71,1.71,0,0,0-.57-1.23A1.88,1.88,0,0,0,78.13,47.06Z"/><path class="cls-1" d="M87,53.6a4.48,4.48,0,0,1-1.82-.34,3.24,3.24,0,0,1-1.26-.93,2.72,2.72,0,0,1-.56-1.39h2a1.31,1.31,0,0,0,.52.78,1.64,1.64,0,0,0,1.07.32,1.5,1.5,0,0,0,1-.26.83.83,0,0,0,.31-.62.68.68,0,0,0-.44-.68,8.74,8.74,0,0,0-1.23-.36c-.34-.07-.68-.16-1-.26a4.84,4.84,0,0,1-1-.4,2.14,2.14,0,0,1-.7-.63,1.64,1.64,0,0,1-.27-.95,2.2,2.2,0,0,1,.82-1.75,4.11,4.11,0,0,1,4.53-.06,2.64,2.64,0,0,1,1,1.77H88c-.11-.57-.55-.86-1.3-.86a1.43,1.43,0,0,0-.87.22.65.65,0,0,0-.31.55c0,.23.15.41.46.55a6.47,6.47,0,0,0,1.21.38c.54.12,1,.26,1.5.41a2.61,2.61,0,0,1,1.09.68,1.86,1.86,0,0,1,.41,1.28,2.23,2.23,0,0,1-.38,1.31,2.58,2.58,0,0,1-1.13.91A4.27,4.27,0,0,1,87,53.6Z"/><path class="cls-1" d="M93.07,44.4a1.26,1.26,0,0,1-.9-.33,1.08,1.08,0,0,1-.36-.83,1.07,1.07,0,0,1,.36-.83,1.3,1.3,0,0,1,.9-.32,1.33,1.33,0,0,1,.91.32,1.09,1.09,0,0,1,.35.83,1.11,1.11,0,0,1-.35.83A1.29,1.29,0,0,1,93.07,44.4Zm-1,9v-7.8h2v7.8Z"/><path class="cls-1" d="M99.49,51.08a4.32,4.32,0,0,1-1-.12l-.59.58a3.27,3.27,0,0,0,.73.24c.3.06.79.12,1.48.18a4.2,4.2,0,0,1,2.26.74,2.06,2.06,0,0,1,.71,1.66,2.51,2.51,0,0,1-.38,1.31,2.68,2.68,0,0,1-1.16,1,4.57,4.57,0,0,1-2,.39,5.2,5.2,0,0,1-2.69-.62,2.06,2.06,0,0,1-1-1.87,2.24,2.24,0,0,1,1-1.82,2.73,2.73,0,0,1-.54-.3,2.6,2.6,0,0,1-.4-.33v-.36l1.37-1.45a2.6,2.6,0,0,1-.91-2.06,2.71,2.71,0,0,1,.38-1.43,2.75,2.75,0,0,1,1.09-1,3.67,3.67,0,0,1,1.72-.38,3.78,3.78,0,0,1,1.23.19h3v1.23l-1.33.09a2.92,2.92,0,0,1,.31,1.32,2.78,2.78,0,0,1-.38,1.43,2.71,2.71,0,0,1-1.09,1A3.6,3.6,0,0,1,99.49,51.08ZM97.6,54.37a.93.93,0,0,0,.54.87,2.75,2.75,0,0,0,1.33.29,2.24,2.24,0,0,0,1.23-.3,1,1,0,0,0,.47-.83.94.94,0,0,0-.3-.71,2.19,2.19,0,0,0-1.22-.34c-.43,0-.83-.08-1.2-.14a1.73,1.73,0,0,0-.65.55A1.11,1.11,0,0,0,97.6,54.37Zm1.89-4.83a1.52,1.52,0,0,0,1-.33,1.14,1.14,0,0,0,.4-.94,1.16,1.16,0,0,0-.4-1,1.52,1.52,0,0,0-1-.33,1.56,1.56,0,0,0-1,.33,1.18,1.18,0,0,0-.39,1,1.16,1.16,0,0,0,.39.94A1.56,1.56,0,0,0,99.49,49.54Z"/><path class="cls-1" d="M105.13,53.41v-7.8h1.78l.16,1.32a2.71,2.71,0,0,1,1.05-1.1,3.08,3.08,0,0,1,1.61-.41,2.88,2.88,0,0,1,2.25.91,4,4,0,0,1,.8,2.68v4.4h-2V49.2a2.56,2.56,0,0,0-.4-1.55,1.53,1.53,0,0,0-1.28-.53,1.79,1.79,0,0,0-1.39.6,2.39,2.39,0,0,0-.54,1.66v4Z"/><path class="cls-1" d="M117.78,53.41l4-11h2.27l4,11H126l-.88-2.55h-4.3l-.89,2.55Zm3.55-4.12h3.2l-1.61-4.58Z"/><path class="cls-1" d="M132.77,51.08a4.47,4.47,0,0,1-1.06-.12l-.58.58a3.35,3.35,0,0,0,.72.24c.31.06.8.12,1.48.18a4.24,4.24,0,0,1,2.27.74,2.06,2.06,0,0,1,.7,1.66,2.5,2.5,0,0,1-.37,1.31,2.65,2.65,0,0,1-1.17,1,4.5,4.5,0,0,1-2,.39,5.17,5.17,0,0,1-2.69-.62,2.06,2.06,0,0,1-1-1.87,2.24,2.24,0,0,1,1-1.82,2.73,2.73,0,0,1-.54-.3,2.2,2.2,0,0,1-.4-.33v-.36l1.37-1.45a2.61,2.61,0,0,1-.92-2.06,2.72,2.72,0,0,1,.39-1.43,2.75,2.75,0,0,1,1.09-1,4.05,4.05,0,0,1,2.94-.19h3v1.23l-1.34.09a2.78,2.78,0,0,1-1.15,3.78A3.6,3.6,0,0,1,132.77,51.08Zm-1.89,3.29a.93.93,0,0,0,.54.87,2.72,2.72,0,0,0,1.33.29,2.29,2.29,0,0,0,1.23-.3,1,1,0,0,0,.47-.83.92.92,0,0,0-.31-.71,2.14,2.14,0,0,0-1.22-.34c-.43,0-.82-.08-1.19-.14a1.66,1.66,0,0,0-.65.55A1,1,0,0,0,130.88,54.37Zm1.89-4.83a1.55,1.55,0,0,0,1-.33,1.14,1.14,0,0,0,.4-.94,1.16,1.16,0,0,0-.4-1,1.76,1.76,0,0,0-2.05,0,1.19,1.19,0,0,0-.4,1,1.17,1.17,0,0,0,.4.94A1.56,1.56,0,0,0,132.77,49.54Z"/><path class="cls-1" d="M141.89,53.6a4.28,4.28,0,0,1-2.09-.5,3.62,3.62,0,0,1-1.43-1.42,4.15,4.15,0,0,1-.52-2.11,4.46,4.46,0,0,1,.51-2.15A3.7,3.7,0,0,1,139.77,46a4.18,4.18,0,0,1,2.13-.53,4.07,4.07,0,0,1,2,.5,3.66,3.66,0,0,1,1.38,1.38,3.86,3.86,0,0,1,.49,1.94v.37q0,.18,0,.39h-5.93a2,2,0,0,0,.64,1.43,2,2,0,0,0,1.39.52,1.78,1.78,0,0,0,1-.28,1.63,1.63,0,0,0,.62-.71h2a3.74,3.74,0,0,1-.73,1.34,3.5,3.5,0,0,1-1.26,1A4,4,0,0,1,141.89,53.6Zm0-6.54a2.19,2.19,0,0,0-1.3.41,2,2,0,0,0-.73,1.27h3.89a1.71,1.71,0,0,0-.57-1.23A1.88,1.88,0,0,0,141.9,47.06Z"/><path class="cls-1" d="M147.5,53.41v-7.8h1.78l.16,1.32a2.75,2.75,0,0,1,1-1.1,3.13,3.13,0,0,1,1.61-.41,2.85,2.85,0,0,1,2.25.91,3.92,3.92,0,0,1,.81,2.68v4.4h-2V49.2a2.49,2.49,0,0,0-.41-1.55,1.5,1.5,0,0,0-1.27-.53,1.78,1.78,0,0,0-1.39.6,2.39,2.39,0,0,0-.55,1.66v4Z"/><path class="cls-1" d="M160.88,53.6a4.14,4.14,0,0,1-2.1-.52,3.78,3.78,0,0,1-1.44-1.45,4.51,4.51,0,0,1,0-4.24,3.78,3.78,0,0,1,1.44-1.45,4.14,4.14,0,0,1,2.1-.52,4,4,0,0,1,2.52.78,3.52,3.52,0,0,1,1.31,2.15h-2.13a1.51,1.51,0,0,0-.62-.89,1.82,1.82,0,0,0-1.09-.32,1.86,1.86,0,0,0-1.42.63,2.49,2.49,0,0,0-.58,1.74,2.51,2.51,0,0,0,.58,1.75,1.86,1.86,0,0,0,1.42.63,1.89,1.89,0,0,0,1.09-.32,1.5,1.5,0,0,0,.62-.9h2.13a3.58,3.58,0,0,1-1.31,2.13A4,4,0,0,1,160.88,53.6Z"/><path class="cls-1" d="M167.47,56.87l1.81-4h-.47l-3-7.28H168l2.19,5.49,2.28-5.49h2.14l-5,11.26Z"/></svg>